<svg width="36" height="36" viewBox="0 0 36 36" fill="none" xmlns="http://www.w3.org/2000/svg">
<path d="M16.155 27.45C13.9211 27.45 11.7373 26.7876 9.87983 25.5465C8.02238 24.3054 6.57467 22.5413 5.71977 20.4774C4.86488 18.4136 4.6412 16.1424 5.07702 13.9514C5.51285 11.7604 6.58859 9.74786 8.16822 8.16822C9.74786 6.58859 11.7604 5.51285 13.9514 5.07702C16.1424 4.6412 18.4136 4.86488 20.4774 5.71977C22.5413 6.57467 24.3054 8.02238 25.5465 9.87983C26.7876 11.7373 27.45 13.9211 27.45 16.155C27.45 17.6382 27.1578 19.107 26.5902 20.4774C26.0226 21.8478 25.1906 23.093 24.1418 24.1418C23.093 25.1906 21.8478 26.0226 20.4774 26.5902C19.107 27.1578 17.6382 27.45 16.155 27.45ZM16.155 7.12499C14.375 7.12499 12.6349 7.65284 11.1549 8.64177C9.67482 9.63069 8.52126 11.0363 7.84008 12.6808C7.15889 14.3254 6.98066 16.1349 7.32792 17.8808C7.67519 19.6266 8.53236 21.2303 9.79103 22.4889C11.0497 23.7476 12.6533 24.6048 14.3992 24.9521C16.145 25.2993 17.9546 25.1211 19.5992 24.44C21.2436 23.7587 22.6493 22.6052 23.6382 21.1251C24.6272 19.6451 25.155 17.9051 25.155 16.125C25.155 13.738 24.2069 11.4489 22.5189 9.76103C20.8311 8.0732 18.542 7.12499 16.155 7.12499Z" fill="black"/>
<path d="M30 31.125C29.8522 31.1256 29.7057 31.0968 29.5692 31.0401C29.4327 30.9835 29.3088 30.9001 29.205 30.795L23.01 24.6C22.8112 24.3867 22.7031 24.1045 22.7082 23.8131C22.7133 23.5216 22.8315 23.2437 23.0376 23.0374C23.2437 22.8313 23.5218 22.7133 23.8132 22.7082C24.1047 22.7031 24.3867 22.8112 24.6 23.01L30.795 29.205C31.0056 29.4159 31.1239 29.7018 31.1239 30C31.1239 30.298 31.0056 30.5839 30.795 30.795C30.6912 30.9001 30.5673 30.9835 30.4308 31.0401C30.2943 31.0968 30.1477 31.1256 30 31.125Z" fill="black"/>
</svg>
