<svg width="36" height="36" viewBox="0 0 36 36" fill="none" xmlns="http://www.w3.org/2000/svg">
<g clip-path="url(#clip0_200_42)">
<path d="M35.088 12.96H31.4922C31.377 12.576 31.2512 12.323 31.1151 12.0235L33.648 9.47855C34.0227 9.10378 34.023 8.49023 33.6484 8.11526L27.885 2.34211C27.7049 2.16183 27.4605 2.0591 27.2057 2.0591C26.9509 2.0591 26.7066 2.15972 26.5264 2.34L23.9828 4.86239C23.6811 4.72395 23.424 4.59534 23.04 4.47799V0.912023C23.04 0.381867 22.6582 0 22.128 0H13.968C13.4378 0 12.96 0.381867 12.96 0.912023V4.44164C12.672 4.56075 12.3434 4.6916 12.0303 4.8337L9.54387 2.33838C9.1691 1.96397 8.56772 1.96411 8.19288 2.33859L2.42262 8.10879C2.04764 8.48355 2.04898 9.09134 2.42374 9.46645L4.90697 11.9746C4.76213 12.2901 4.62945 12.5761 4.50787 12.9601H1.008C0.477773 12.96 0 13.3419 0 13.872V22.032C0 22.5621 0.477773 23.04 1.008 23.04H4.50787C4.62923 23.328 4.76255 23.6612 4.90704 23.9764L2.42227 26.4492C2.2422 26.6292 2.14102 26.8675 2.14109 27.1223C2.14116 27.3772 2.24248 27.6183 2.42269 27.7983L8.19907 33.5666C8.57384 33.941 9.18112 33.9403 9.55582 33.5659L12.0298 31.0707C12.3429 31.2127 12.6719 31.3433 12.9599 31.4625V34.9921C12.9599 35.5222 13.4376 36.0001 13.9679 36.0001H22.1278C22.6581 36.0001 23.0399 35.5222 23.0399 34.9921V31.426C23.4238 31.3086 23.6813 31.179 23.983 31.0404L26.5143 33.5853C26.6943 33.7656 26.9506 33.888 27.2054 33.888C27.2054 33.888 27.2055 33.888 27.2056 33.888C27.4603 33.888 27.7045 33.7657 27.8846 33.5856L33.6514 27.8067C33.8314 27.6266 33.9325 27.3765 33.9323 27.1217C33.9322 26.867 33.8311 26.6199 33.6509 26.4399L31.1156 23.9288C31.2514 23.6297 31.377 23.328 31.4921 23.04H35.088C35.6182 23.04 36 22.5621 36 22.032V13.872C36 13.3419 35.6182 12.96 35.088 12.96ZM34.08 21.12H30.8087C30.3907 21.12 30.0207 21.3665 29.8939 21.7649C29.684 22.4247 29.4172 23.0584 29.1009 23.672C28.9096 24.0431 28.9803 24.4896 29.2757 24.7848L31.6147 27.1193L27.2059 31.5291L24.8809 29.2004C24.5846 28.9037 24.1299 28.8333 23.7581 29.0269C23.1418 29.348 22.4702 29.6186 21.8094 29.8317C21.4128 29.9596 21.12 30.3285 21.12 30.7452V34.08H14.88V30.7763C14.88 30.3569 14.6319 29.9861 14.2317 29.8605C13.5587 29.649 12.9118 29.3783 12.2852 29.0557C11.9144 28.8649 11.4687 28.9351 11.1734 29.23L8.87449 31.5289L4.45753 27.1155L6.74845 24.8254C7.04468 24.5292 7.11499 24.0751 6.92163 23.7034C6.59468 23.0751 6.32032 22.4387 6.1058 21.7649C5.97895 21.3666 5.60918 21.12 5.19117 21.12H1.92002V14.88H5.19131C5.60932 14.88 5.9793 14.5856 6.10608 14.1871C6.32074 13.5127 6.59538 12.8401 6.92255 12.2115C7.11591 11.8401 7.04609 11.3801 6.75007 11.0838L4.46189 8.7911L8.8778 4.37618L11.1799 6.67448C11.475 6.96923 11.9267 7.03941 12.2975 6.84851C12.9248 6.52577 13.5596 6.25486 14.2317 6.04371C14.6317 5.91806 14.88 5.54702 14.88 5.12768V1.92002H21.12V5.15883C21.12 5.57557 21.4128 5.94471 21.8095 6.07254C22.4703 6.28559 23.1297 6.55629 23.7457 6.8772C24.1177 7.07105 24.5781 7.00102 24.8745 6.70423L27.2028 4.37604L31.6105 8.7873L29.2743 11.1244C28.9791 11.4197 28.9089 11.8718 29.1002 12.243C29.4166 12.8571 29.6838 13.527 29.8939 14.187C30.0206 14.5853 30.3908 14.88 30.8088 14.88H34.08V21.12H34.08Z" fill="black"/>
<path d="M18 8.01599C12.5212 8.01599 8.06396 12.4732 8.06396 17.952C8.06396 23.4307 12.5212 27.888 18 27.888C23.4787 27.888 27.936 23.4307 27.936 17.952C27.936 12.4732 23.4787 8.01599 18 8.01599ZM18 25.968C13.5799 25.968 9.98399 22.372 9.98399 17.9521C9.98399 13.5321 13.5799 9.93601 18 9.93601C22.42 9.93601 26.0159 13.532 26.0159 17.952C26.0159 22.372 22.42 25.968 18 25.968Z" fill="black"/>
<path d="M18 12.576C15.0357 12.576 12.624 14.9877 12.624 17.9521C12.624 20.9164 15.0357 23.3281 18 23.3281C20.9644 23.3281 23.3761 20.9164 23.3761 17.9521C23.3761 14.9876 20.9644 12.576 18 12.576ZM18 21.408C16.0944 21.408 14.544 19.8577 14.544 17.952C14.544 16.0463 16.0944 14.496 18 14.496C19.9057 14.496 21.456 16.0463 21.456 17.952C21.456 19.8577 19.9057 21.408 18 21.408Z" fill="black"/>
</g>
<defs>
<clipPath id="clip0_200_42">
<rect width="36" height="36" fill="white"/>
</clipPath>
</defs>
</svg>
