<svg width="36" height="36" viewBox="0 0 36 36" fill="none" xmlns="http://www.w3.org/2000/svg">
<path d="M3.57194 3.57355L3.57355 3.57194C4.79714 2.34556 6.37314 1.68775 8.68919 1.34759C11.0392 1.00245 14.0222 1 17.9967 1C21.9712 1 24.9545 1.00243 27.3055 1.34683C29.6222 1.68621 31.2004 2.34254 32.4273 3.56622C33.6543 4.79331 34.3122 6.37149 34.6524 8.68833C34.9976 11.0391 35 14.0222 35 17.9967C35 21.9712 34.9976 24.9543 34.6524 27.3051C34.3122 29.622 33.6543 31.2002 32.4273 32.4273C31.2003 33.6542 29.6207 34.3122 27.3027 34.6524C24.9511 34.9976 21.9679 35 17.9967 35C14.0255 35 11.0424 34.9976 8.69159 34.6524C6.37446 34.3122 4.79699 33.6543 3.57355 32.4281L3.57275 32.4273C2.34581 31.2003 1.68782 29.6207 1.3476 27.3027C1.00244 24.9511 1 21.9679 1 17.9967C1 14.0255 1.00244 11.0424 1.3476 8.69159C1.68781 6.37446 2.34571 4.79699 3.57194 3.57355Z" stroke="white" stroke-width="2"/>
<path d="M26.943 10.5476L23.9249 24.9738C23.6972 25.992 23.1034 26.2454 22.2596 25.7657L17.6609 22.3311L15.442 24.4941C15.1964 24.743 14.9911 24.9512 14.5178 24.9512L14.8482 20.2043L23.3713 12.3984C23.7418 12.0636 23.2909 11.878 22.7953 12.2129L12.2587 18.9373L7.72255 17.4983C6.73585 17.186 6.718 16.4982 7.92793 16.0185L25.6706 9.09053C26.4921 8.77829 27.2109 9.27606 26.943 10.5476Z" fill="white"/>
</svg>
