<svg width="36" height="36" viewBox="0 0 36 36" fill="none" xmlns="http://www.w3.org/2000/svg">
<g clip-path="url(#clip0_90_70)">
<path d="M17.991 2.25C21.8115 2.25 25.8638 5.4675 25.8638 7.86937V13.491C25.8638 15.6555 24.9637 19.7955 22.5506 21.6956C21.9352 22.1794 21.6158 22.95 21.708 23.7285C21.8003 24.507 22.2908 25.1809 23.0029 25.5082L32.7938 30.1511C32.8703 30.186 33.732 30.3311 33.732 31.5349L33.7331 33.7309L2.25112 33.7331V31.4505C2.25112 30.5561 2.92163 30.2749 3.1905 30.1523L13.0702 25.4891C13.779 25.164 14.2684 24.4935 14.3629 23.7195C14.4574 22.9455 14.1457 22.1783 13.5382 21.6911C11.2005 19.8146 10.1115 15.6893 10.1115 13.4933V7.87163C10.1126 5.5215 14.2042 2.25225 17.991 2.25225V2.25ZM17.991 0C13.023 0 7.8615 4.14675 7.8615 7.8705V13.4921C7.8615 15.9491 8.98312 20.9182 12.1286 23.445L2.24775 28.1081C2.24775 28.1081 0 29.1094 0 30.357V33.7331C0 34.9762 1.00688 35.982 2.24775 35.982H33.732C34.9751 35.982 35.9809 34.9751 35.9809 33.7331V30.357C35.9809 29.0351 33.732 28.1081 33.732 28.1081L23.9411 23.4653C27.0574 21.0127 28.1126 16.1932 28.1126 13.4921V7.8705C28.1126 4.14675 22.9579 0.001125 17.9899 0.001125L17.991 0Z" fill="black"/>
</g>
<defs>
<clipPath id="clip0_90_70">
<rect width="36" height="36" fill="white"/>
</clipPath>
</defs>
</svg>
