<svg width="23" height="38" viewBox="0 0 23 38" fill="none" xmlns="http://www.w3.org/2000/svg">
<path d="M9.90056 36.3581C7.98547 34.9127 6.61241 32.7447 6.14272 30.2153H0V3.69335C3.28815 5.35554 5.67292 8.96893 5.92582 12.7268L6.86531 20.1702L6.39562 20.098C5.42002 20.098 4.55276 21.0375 4.55276 21.9407C4.55276 22.808 5.20324 23.5307 6.07039 23.7113L7.19055 23.9643C9.0333 20.4593 10.0812 17.0266 10.0812 13.6662C10.0812 10.631 9.68377 7.59586 9.61143 4.48839C9.61143 3.11532 10.1535 1.8506 10.9846 0.875C11.8518 1.8506 12.3577 3.11532 12.3577 4.48839C12.3577 7.59586 11.8879 10.631 11.8879 13.6662C11.8879 17.0266 12.9358 20.4593 14.7786 23.9643L15.8987 23.7113C16.7659 23.5307 17.4163 22.7719 17.4163 21.9407C17.4163 21.0014 16.5491 20.098 15.5735 20.098L15.176 20.1702L16.1155 12.7268C16.5852 8.96893 18.7532 5.31942 22.0413 3.69335V30.2153H15.8987C15.4289 32.7086 14.1282 34.9488 12.1408 36.3581C11.6711 36.6832 11.2736 37.0806 11.0207 37.6227C10.7677 37.0806 10.3702 36.6832 9.90056 36.3581ZM2.89069 21.0375C3.14359 20.0619 3.86629 19.1946 4.80577 18.6526L4.08307 12.51C3.83017 10.5949 3.03525 8.89659 1.84275 7.48741V21.0014H2.89069V21.0375ZM5.99816 28.3725C5.99816 27.4331 6.14272 26.6019 6.3234 25.7348L5.45614 25.5541C4.22764 25.1206 3.21592 24.1449 2.89069 22.8802H1.84275V28.3725H5.99816ZM10.0812 28.3725C10.0812 27.2524 9.21397 26.2768 8.09392 26.1323C7.91325 26.855 7.76869 27.5775 7.76869 28.3725H10.0812ZM10.0812 30.2153H8.02159C8.34682 31.6606 9.06952 32.9976 10.0812 34.1177V30.2153ZM13.008 24.4701C12.2131 23.0248 11.4904 21.5072 11.0207 19.9173C10.5509 21.5072 9.82833 23.0248 9.0333 24.4701C9.82833 24.6507 10.4787 25.1928 11.0207 25.807C11.5626 25.1928 12.2131 24.6507 13.008 24.4701ZM14.2365 28.3725C14.2365 27.5775 14.092 26.855 13.9114 26.1323C12.7912 26.2768 11.924 27.2524 11.924 28.3725H14.2365ZM13.9836 30.2153H11.924V34.1177C12.9358 32.9615 13.6584 31.6606 13.9836 30.2153ZM20.1986 28.3725V22.8802H19.1508C18.8255 24.1449 17.8138 25.1206 16.5852 25.518L15.718 25.6987C15.8987 26.5658 16.0433 27.3969 16.0433 28.3364H20.1986V28.3725ZM20.1986 21.0375V7.52353C19.0062 8.89659 18.1389 10.631 17.9583 12.5461L17.2357 18.6888C18.1752 19.2307 18.8977 20.0619 19.1508 21.0736H20.1986V21.0375Z" fill="black"/>
</svg>
