<svg width="64" height="64" viewBox="0 0 49 48" fill="none" xmlns="http://www.w3.org/2000/svg">
<path d="M24.0079 47.2409C10.7387 47.2409 7.30675 46.5924 4.36507 43.6349C1.40758 40.7091 0.759143 37.3245 0.759143 24.0079C0.759143 10.7387 1.40758 7.32257 4.36507 4.36507C7.29094 1.40758 10.7387 0.759143 24.0079 0.759143C37.2771 0.759143 40.7091 1.40758 43.6507 4.36507C46.6082 7.30675 47.2567 10.6913 47.2567 24.0079C47.2567 37.3245 46.6082 40.7091 43.6507 43.6507C40.7091 46.6082 37.2613 47.2409 24.0079 47.2409ZM24.0079 48C37.4511 48 41.0728 47.3199 44.2043 44.1885C47.3516 41.0412 48.0158 37.4353 48.0158 23.9921C48.0158 10.5489 47.3516 6.95881 44.2043 3.79572C41.057 0.680066 37.4353 0 24.0079 0C10.5647 0 6.943 0.680066 3.81153 3.81153C0.680066 6.95881 0 10.5647 0 24.0079C0 37.4511 0.664251 41.0412 3.81153 44.2043C6.943 47.3199 10.5647 48 24.0079 48Z" fill="white"/>
<path d="M22.9799 40.5033C21.2244 39.1748 19.9591 37.182 19.5321 34.873H13.886V10.5487C16.9067 12.067 19.0893 15.3883 19.3265 18.8361L20.1805 25.6683L19.7693 25.6209C18.8679 25.6209 18.0771 26.4749 18.0771 27.3132C18.0771 28.1039 18.6781 28.7682 19.4689 28.9422L20.4969 29.1794C22.1891 25.9688 23.1539 22.8216 23.1539 19.7375C23.1539 16.954 22.7901 14.1705 22.7268 11.3237C22.7268 10.0585 23.2171 8.90392 23.9921 8.00244C24.7829 8.90392 25.2573 10.0585 25.2573 11.3237C25.2573 14.1705 24.8303 16.954 24.8303 19.7375C24.8303 22.8216 25.795 25.9688 27.4873 29.1794L28.5153 28.9422C29.3061 28.7682 29.9071 28.0881 29.9071 27.3132C29.9071 26.4591 29.1163 25.6209 28.2148 25.6209L27.7878 25.6842L28.6418 18.8519C29.0689 15.4041 31.0616 12.067 34.0824 10.5646V34.8888H28.452C28.025 37.182 26.8231 39.2539 25.0043 40.5191C24.5773 40.8196 24.2135 41.1833 23.9763 41.6736C23.7549 41.1833 23.3911 40.8196 22.9799 40.5033ZM16.5588 26.4749C16.796 25.5735 17.4603 24.7827 18.3143 24.2924L17.6501 18.6621C17.4128 16.9066 16.6853 15.3408 15.5941 14.0598V26.4591H16.5588V26.4749ZM19.4056 33.1807C19.4056 32.3267 19.5321 31.5517 19.7061 30.7609L18.9153 30.5711C17.7608 30.2074 16.8593 29.3059 16.5588 28.1514H15.5941V33.1807H19.4056ZM23.1539 33.1807C23.1539 32.1527 22.3631 31.2512 21.3351 31.1247C21.1611 31.7889 21.0346 32.4532 21.0346 33.1807H23.1539ZM23.1539 34.8888H21.2718C21.5723 36.2173 22.2366 37.4351 23.1539 38.4631V34.8888ZM25.8109 29.6222C25.0833 28.2937 24.4191 26.902 23.9921 25.4469C23.5651 26.902 22.9008 28.2937 22.1733 29.6222C22.9008 29.7962 23.5018 30.2865 23.9921 30.84C24.4824 30.2865 25.0833 29.7962 25.8109 29.6222ZM26.9654 33.1807C26.9654 32.4532 26.8389 31.7889 26.6649 31.1247C25.6369 31.2512 24.8461 32.1527 24.8461 33.1807H26.9654ZM26.7282 34.8888H24.8461V38.4631C25.7634 37.4193 26.4277 36.2173 26.7282 34.8888ZM32.4059 33.1807V28.1514H31.4412C31.1407 29.3059 30.2234 30.2074 29.0847 30.5711L28.2939 30.7609C28.4679 31.5517 28.5944 32.3267 28.5944 33.1807H32.4059ZM32.4059 26.4749V14.0598C31.3146 15.325 30.5239 16.9066 30.3499 18.6621L29.6857 24.2924C30.5397 24.7827 31.2039 25.5576 31.4412 26.4749H32.4059Z" fill="white"/>
</svg>
